# xmcd
#
# Track frame offsets:
#	150
#	14489
#	30654
#	49221
#	63560
#	79223
#	89667
#	107544
#	120950
#	135616
#
# Disc length: 2038 seconds
#
# Revision: 0
# Processed by: cddbd v1.5.1PL0 Copyright (c) Steve Scherf et al.
# Submitted via: dBpowerAMP V4.0
#
DISCID=8107f40a
DTITLE=Randy Travis - Greatest Hits Vol. 2
DYEAR=1992
DGENRE=Country
TTITLE0=Look Heart, No Hands
TTITLE1=Forever And Ever, Amen
TTITLE2=No Place Like Home
TTITLE3=Is It Still Over
TTITLE4=He Walked On Water
TTITLE5=Take Another Swing At Me
TTITLE6=Promises
TTITLE7=Diggin' Up Bones
TTITLE8=I Won't Need You Anymore ( Always And Forever )
TTITLE9=It's Just A Matter Of Time
EXTD=
EXTT0=
EXTT1=
EXTT2=
EXTT3=
EXTT4=
EXTT5=
EXTT6=
EXTT7=
EXTT8=
EXTT9=
PLAYORDER=
